# xmcd
#
# Track frame offsets: 
#        180
#        8918
#        22293
#        32664
#        46158
#        56458
#        69152
#        80499
#        94829
#        116953
#        128697
#
# Disc length: 1887 seconds
#
# Revision: 0
# Processed by: cddbd v1.5.2PL0 Copyright (c) Steve Scherf et al.
# Submitted via: ExactAudioCopy v0.95a5
#
DISCID=8b075d0b
DTITLE=Jeff Marcus - Elective Mutism
DYEAR=1994
DGENRE=Instrumental
TTITLE0=Type D
TTITLE1=Overtones
TTITLE2=Bed of Nales
TTITLE3=Green
TTITLE4=Weeping, Not Oozing
TTITLE5=Blue Sky Tuesday
TTITLE6=After-Dinner Boogie
TTITLE7=Loose
TTITLE8=Illogica
TTITLE9=Floating
TTITLE10=Captain Meander
EXTD=
EXTT0=
EXTT1=
EXTT2=
EXTT3=
EXTT4=
EXTT5=
EXTT6=
EXTT7=
EXTT8=
EXTT9=
EXTT10=
PLAYORDER=
